# xmcd CD database file
#
# Track frame offsets:
#	150
#	16605
#	34758
#	52010
#	67918
#	88200
#	105678
#	129185
#	144925
#
# Disc length: 2267 seconds
#
# Revision: 1
# Processed by: cddbd v1.5.1PL0 Copyright (c) Steve Scherf et al.
# Submitted via: CDex 1.51
#
DISCID=6c08d909
DTITLE=James Moody - Moody And The Brass Figures
DYEAR=1900
DGENRE=Jazz
TTITLE0=Smack-A-Mac
TTITLE1=Bess, You Is My Woman Now
TTITLE2=Cherokee
TTITLE3=Love, Where Are You?
TTITLE4=The Moon Was Yellow
TTITLE5=Au Privave
TTITLE6=Ruby, My Dear
TTITLE7=Simplicity And Beauty
TTITLE8=Never Again
EXTD=
EXTT0=
EXTT1=
EXTT2=
EXTT3=
EXTT4=
EXTT5=
EXTT6=
EXTT7=
EXTT8=
PLAYORDER=
